<?xml version="1.0" encoding="UTF-8" standalone="no"?>
<svg
   xmlns:dc="http://purl.org/dc/elements/1.1/"
   xmlns:cc="http://creativecommons.org/ns#"
   xmlns:rdf="http://www.w3.org/1999/02/22-rdf-syntax-ns#"
   xmlns:svg="http://www.w3.org/2000/svg"
   xmlns="http://www.w3.org/2000/svg"
   xmlns:sodipodi="http://sodipodi.sourceforge.net/DTD/sodipodi-0.dtd"
   xmlns:inkscape="http://www.inkscape.org/namespaces/inkscape"
   version="1.1"
   id="svg2"
   viewBox="0 0 12 11.999999"
   height="12"
   width="12"
   sodipodi:docname="archive.svg"
   inkscape:version="0.92.2 2405546, 2018-03-11">
  <sodipodi:namedview
     pagecolor="#ffffff"
     bordercolor="#666666"
     borderopacity="1"
     objecttolerance="10"
     gridtolerance="10"
     guidetolerance="10"
     inkscape:pageopacity="0"
     inkscape:pageshadow="2"
     inkscape:window-width="1319"
     inkscape:window-height="854"
     id="namedview7"
     showgrid="false"
     inkscape:zoom="19.666667"
     inkscape:cx="-10.830508"
     inkscape:cy="6.0000002"
     inkscape:window-x="0"
     inkscape:window-y="0"
     inkscape:window-maximized="0"
     inkscape:current-layer="svg2" />
  <defs
     id="defs4" />
  <metadata
     id="metadata7">
    <rdf:RDF>
      <cc:Work
         rdf:about="">
        <dc:format>image/svg+xml</dc:format>
        <dc:type
           rdf:resource="http://purl.org/dc/dcmitype/StillImage" />
        <dc:title />
      </cc:Work>
    </rdf:RDF>
  </metadata>
  <g
     transform="translate(-72.088666,-1434.8647)"
     id="layer1" />
  <path
     style="fill:#000000;fill-opacity:0.42929292"
     id="rect3336"
     d="m 7.384615,5.53845 q 0,-0.1875 -0.137019,-0.3245 -0.137019,-0.137 -0.324519,-0.137 l -1.846154,0 q -0.1875,0 -0.324519,0.137 -0.137019,0.137 -0.137019,0.3245 0,0.1875 0.137019,0.3245 0.137019,0.1371 0.324519,0.1371 l 1.846154,0 q 0.1875,0 0.324519,-0.1371 0.137019,-0.137 0.137019,-0.3245 z m 4.153847,-1.3846 0,6.9231 q 0,0.1875 -0.13702,0.3245 -0.137019,0.137 -0.324519,0.137 l -10.153846,0 q -0.1875,0 -0.324519,-0.137 -0.13702,-0.137 -0.13702,-0.3245 l 0,-6.9231 q 0,-0.1875 0.13702,-0.3245 0.137019,-0.137 0.324519,-0.137 l 10.153846,0 q 0.1875,0 0.324519,0.137 0.13702,0.137 0.13702,0.3245 z M 12,0.92304952 12,2.76925 q 0,0.1875 -0.137019,0.3245 -0.137019,0.137 -0.324519,0.137 l -11.076924,0 q -0.1875,0 -0.324519,-0.137 Q 0,2.95675 0,2.76925 L 0,0.92304952 q 0,-0.1875 0.137019,-0.3245 0.137019,-0.137 0.324519,-0.137 l 11.076924,0 q 0.1875,0 0.324519,0.137 Q 12,0.73554952 12,0.92304952 Z" />
</svg>
